<svg width="240" height="240" viewBox="0 0 240 240" fill="none" xmlns="http://www.w3.org/2000/svg">
<g clip-path="url(#clip0)">
<path d="M207.184 56.0034L193.484 214.874C173.182 230.625 147.688 240 120 240C92.3119 240 66.818 230.625 46.5159 214.874L32.8163 56.0034H207.184Z" fill="#006BC0"/>
<path d="M119.999 70.9397V236.858L177.314 220.677L190.099 70.9397H119.999Z" fill="#0096DC"/>
<path d="M170.642 135.838H129.305L172.5 113.855L174.366 91.756H65.6311L67.5338 114.286H111.182L69.3024 135.227L71.2509 158.308H145.958L143.509 185.797L119.999 192.164L95.5088 185.307L94.8966 168.164H72.0834L74.9372 201.96L119.999 214.695L165.06 201.96L170.643 135.834L170.642 135.838Z" fill="white"/>
<path d="M77.5087 31.5112V15.8376H100.039V7.34808H69.3455V40.0007H100.039V31.5112H77.5087Z" fill="#222123"/>
<path d="M113.223 20.1234V16.2046H135.631V15.8376V7.34808H104.937V27.5925H126.937V31.5112H104.937V40.0007H135.631V31.5112V20.1234H113.223Z" fill="#222123"/>
<path d="M148.243 20.1234V16.2046H170.651V15.8376V7.34808H139.957V27.5925H161.957V31.5112H139.957V40.0007H170.651V31.5112V20.1234H148.243Z" fill="#222123"/>
</g>
<defs>
<clipPath id="clip0">
<rect width="240" height="240" fill="white"/>
</clipPath>
</defs>
</svg>
