<svg width="240" height="240" viewBox="0 0 240 240" fill="none" xmlns="http://www.w3.org/2000/svg">
<g clip-path="url(#clip0)">
<path d="M207.184 56.0034L193.484 214.874C173.182 230.625 147.688 240 120 240C92.5617 240 67.2783 230.792 47.0643 215.295L33.3304 56.0034H207.184Z" fill="#E64C18"/>
<path d="M120.256 70.8979V236.328L177.403 220.195L190.151 70.8979H120.256Z" fill="#F36518"/>
<path d="M66.0483 91.6538L71.6522 158.011H146.138L143.701 185.423L120.257 191.771L95.8406 184.931L95.2275 167.841H72.4833L75.3305 201.535L120.257 214.232L165.184 201.535L170.752 135.607H92.31L90.3633 114.12L90.3628 114.119L172.606 113.688L174.466 91.6538H66.0483Z" fill="white"/>
<path d="M70.8558 7.87311V19.2736H59.963V7.87311H49.8295V40.5529H59.963V29.9133H70.8558V40.5529H80.9892V7.87311H70.8558Z" fill="black"/>
<path d="M116.963 7.87311H85.8024V19.2736H95.9358V40.807H106.83V19.2736H116.963V7.87311Z" fill="black"/>
<path d="M174.977 30.4195V8.12671H164.083V30.4195V40.807H174.977H190.683V30.4195H174.977Z" fill="black"/>
<path d="M147.616 8.12671L140.017 19.7798L132.416 8.12671H121.523V40.807H132.416V24.593L140.017 36.247L147.616 24.593V40.807H158.51V8.12671H147.616Z" fill="black"/>
</g>
<defs>
<clipPath id="clip0">
<rect width="240" height="240" fill="white"/>
</clipPath>
</defs>
</svg>
