<svg width="251" height="240" viewBox="0 0 251 240" fill="none" xmlns="http://www.w3.org/2000/svg">
<g clip-path="url(#clip0)">
<path d="M65.478 38.5823C101.64 38.5823 130.956 29.9453 130.956 19.2911C130.956 8.63694 101.64 0 65.478 0C29.3155 0 0 8.63694 0 19.2911C0 29.9453 29.3155 38.5823 65.478 38.5823Z" fill="#5D87A1"/>
<path d="M65.478 51.4431C29.3178 51.4431 0 42.8071 0 32.152V57.8735C0 68.5286 29.3178 77.1646 65.478 77.1646C101.638 77.1646 130.956 68.5286 130.956 57.8735V32.152C130.956 42.8071 101.638 51.4431 65.478 51.4431Z" fill="#F8981D"/>
<path d="M65.478 90.0253C29.3178 90.0253 0 81.3893 0 70.7341V96.4556C0 107.111 29.3178 115.747 65.478 115.747C101.638 115.747 130.956 107.111 130.956 96.4556V70.7341C130.956 81.3893 101.638 90.0253 65.478 90.0253Z" fill="#5D87A1"/>
<path d="M65.478 128.608C29.3178 128.608 0 119.972 0 109.317V135.038C0 145.693 29.3178 154.329 65.478 154.329C101.638 154.329 130.956 145.693 130.956 135.038V109.317C130.956 119.972 101.638 128.608 65.478 128.608Z" fill="#F8981D"/>
</g>
<g clip-path="url(#clip1)">
<path d="M84.4649 201.493H77.9674C77.7376 188.556 77.1048 176.393 76.0702 164.996H76.0125L66.12 201.493H61.1731L51.3396 164.996H51.2831C50.5537 175.938 50.0941 188.104 49.9033 201.493H43.9808C44.3625 185.211 45.3218 169.947 46.8548 155.699H54.9079L64.2806 189.348H64.3384L73.7688 155.699H81.4741C83.1616 172.388 84.1585 187.654 84.4649 201.493ZM112.643 167.706C109.998 184.641 106.507 196.946 102.176 204.627C98.8008 210.539 95.1031 213.499 91.0766 213.499C90.0031 213.499 88.6785 213.117 87.1091 212.358V208.275C87.8762 208.405 88.7764 208.479 89.811 208.479C91.6918 208.479 93.2035 207.869 94.3561 206.646C95.7347 205.156 96.424 203.481 96.424 201.628C96.424 200.357 95.8866 197.759 94.8144 193.825L87.6841 167.705H94.0673L99.185 187.24C100.335 191.676 100.815 194.773 100.623 196.537C103.421 187.72 105.376 178.106 106.49 167.703H112.643V167.706Z" fill="#5D87A1"/>
<path d="M199.132 201.493H180.675V155.699H186.884V195.856H199.132V201.493ZM175.844 202.599L168.707 198.445C169.34 197.832 169.945 197.168 170.49 196.399C173.524 192.196 175.037 185.98 175.037 177.747C175.037 162.596 169.997 155.018 159.914 155.018C154.969 155.018 151.112 156.94 148.354 160.787C145.323 164.993 143.81 171.187 143.81 179.376C143.81 187.425 145.151 193.331 147.834 197.076C150.288 200.469 153.989 202.168 158.937 202.168C160.782 202.168 162.476 201.902 164.019 201.364L173.31 207.745L175.844 202.599ZM152.725 192.329C151.154 189.346 150.368 184.557 150.368 177.952C150.368 166.422 153.337 160.65 159.282 160.65C162.389 160.65 164.667 162.031 166.123 164.785C167.693 167.773 168.483 172.52 168.483 179.032C168.483 190.657 165.511 196.47 159.569 196.47C156.461 196.472 154.183 195.096 152.725 192.329ZM141.104 188.8C141.104 192.683 139.896 195.869 137.483 198.365C135.067 200.85 131.828 202.096 127.769 202.096C123.972 202.096 120.291 200.665 116.728 197.818L118.396 193.886C121.462 195.697 124.238 196.598 126.731 196.598C129.07 196.598 130.898 195.986 132.224 194.773C133.548 193.556 134.338 191.848 134.338 189.689C134.338 186.968 132.73 184.642 129.779 182.695C127.058 180.932 121.617 177.247 121.617 177.247C118.667 174.712 117.191 171.99 117.191 167.505C117.191 163.793 118.292 160.797 120.495 158.518C122.701 156.229 125.548 155.089 129.037 155.089C132.64 155.089 135.916 156.228 138.867 158.482L137.37 162.416C134.846 161.151 132.355 160.518 129.898 160.518C127.908 160.518 126.371 161.083 125.303 162.216C124.226 163.344 123.562 164.788 123.562 166.56C123.562 169.267 125.204 171.622 128.235 173.608C130.992 175.374 136.569 179.122 136.569 179.122C139.594 181.654 141.104 184.351 141.104 188.8Z" fill="#F8981D"/>
<path d="M206.926 140.361C203.172 140.248 200.266 140.694 197.826 141.911C197.122 142.243 196.002 142.243 195.904 143.293C196.284 143.738 196.328 144.455 196.658 145.068C197.221 146.174 198.202 147.663 199.097 148.439C200.08 149.327 201.067 150.207 202.101 150.982C203.926 152.313 205.993 153.088 207.771 154.415C208.807 155.186 209.837 156.185 210.874 157.016C211.384 157.458 211.71 158.177 212.372 158.454V158.285C212.04 157.787 211.946 157.067 211.621 156.514L210.212 154.911C208.851 152.755 207.16 150.872 205.336 149.326C203.834 148.105 200.549 146.447 199.94 144.406L199.845 144.293C200.877 144.179 202.101 143.738 203.082 143.398C204.678 142.902 206.133 143.015 207.77 142.519C208.523 142.297 209.27 142.018 210.026 141.744V141.245C209.178 140.248 208.572 138.924 207.68 137.982C205.292 135.549 202.66 133.169 199.94 131.177C198.484 130.067 196.611 129.353 195.06 128.41C194.501 128.077 193.56 127.912 193.231 127.358C192.39 126.141 191.916 124.538 191.306 123.097C189.95 120.057 188.633 116.683 187.463 113.467C186.617 111.311 186.102 109.157 185.07 107.162C180.236 97.7572 174.986 92.0609 166.918 86.4698C165.184 85.3057 163.121 84.8095 160.918 84.1993L157.399 83.9801C156.648 83.5921 155.896 82.539 155.24 82.0414C152.563 80.0508 145.672 75.7364 143.703 81.4326C142.435 85.0332 145.579 88.573 146.659 90.3992C147.456 91.667 148.489 93.1096 149.047 94.5492C149.377 95.4897 149.47 96.4879 149.8 97.4817C150.551 99.9166 151.253 102.626 152.24 104.898C152.754 106.056 153.316 107.273 153.973 108.322C154.35 108.935 155.006 109.206 155.149 110.206C154.495 111.308 154.443 112.971 154.068 114.354C152.38 120.606 153.039 128.351 155.431 132.945C156.179 134.328 157.965 137.373 160.353 136.206C162.467 135.211 161.999 132.058 162.607 129.293C162.746 128.625 162.654 128.186 162.936 127.748V127.856C163.59 129.404 164.25 130.895 164.857 132.447C166.312 135.156 168.845 137.979 170.956 139.856C172.08 140.857 172.97 142.569 174.377 143.181V143.015H174.285C174 142.519 173.583 142.297 173.209 141.911C172.362 140.915 171.426 139.697 170.769 138.592C168.803 135.492 167.063 132.061 165.518 128.519C164.762 126.801 164.111 124.923 163.502 123.208C163.218 122.546 163.218 121.548 162.747 121.215C162.042 122.431 161.013 123.484 160.499 124.974C159.606 127.357 159.513 130.288 159.181 133.336L158.997 133.443C157.503 133 156.983 131.177 156.416 129.629C155.011 125.698 154.774 119.389 155.994 114.853C156.32 113.694 157.733 110.041 157.169 108.936C156.886 107.878 155.947 107.275 155.432 106.441C154.827 105.392 154.164 104.065 153.742 102.901C152.617 99.8041 152.051 96.3724 150.84 93.2769C150.273 91.8343 149.29 90.3414 148.494 89.0129C147.6 87.5199 146.617 86.4683 145.91 84.6984C145.677 84.0897 145.349 83.0944 145.724 82.4324C145.816 81.988 146.007 81.8222 146.381 81.7111C146.989 81.1053 148.725 81.8755 149.334 82.2087C151.073 83.0381 152.527 83.8128 153.978 84.9739C154.635 85.5293 155.339 86.5809 156.182 86.8579H157.169C158.667 87.243 160.355 86.9645 161.765 87.4651C164.25 88.4071 166.501 89.7889 168.52 91.2804C174.664 95.8762 179.73 102.406 183.15 110.206C183.711 111.477 183.95 112.641 184.462 113.966C185.45 116.68 186.672 119.446 187.652 122.102C188.638 124.701 189.577 127.355 190.985 129.515C191.686 130.676 194.506 131.285 195.771 131.893C196.706 132.39 198.163 132.831 199.006 133.44C200.602 134.599 202.192 135.931 203.692 137.206C204.439 137.87 206.787 139.253 206.926 140.361ZM159.082 92.2787C158.435 92.2707 157.789 92.3644 157.163 92.5571V92.6682H157.253C157.631 93.5524 158.288 94.1656 158.756 94.9372C159.134 95.8244 159.461 96.7042 159.832 97.5899L159.922 97.4803C160.584 96.9278 160.913 96.0421 160.913 94.7136C160.628 94.3226 160.584 93.9404 160.347 93.5524C160.07 92.9985 159.461 92.723 159.082 92.2787Z" fill="#5D87A1"/>
<path d="M211.394 201.486H212.365V195.875H210.908L209.719 199.704L208.427 195.875H207.023V201.486H207.941V197.217H207.992L209.346 201.486H210.045L211.394 197.217V201.486ZM203.565 201.486H204.594V196.826H205.939V195.873H202.163V196.826H203.563L203.565 201.486Z" fill="#F8981D"/>
</g>
<defs>
<clipPath id="clip0">
<rect width="130.956" height="154.329" fill="white"/>
</clipPath>
<clipPath id="clip1">
<rect width="240" height="196.253" fill="white" transform="translate(11 43)"/>
</clipPath>
</defs>
</svg>
