<svg width="240" height="240" viewBox="0 0 240 240" fill="none" xmlns="http://www.w3.org/2000/svg">
<path d="M58.8975 141.885H48.3863L59.07 90.8812H79.8038C83.49 90.8812 86.4075 91.3162 88.5525 92.1862C90.6975 93.0562 92.3963 94.4962 93.6488 96.4987C94.9013 98.505 95.5275 100.901 95.5275 103.684C95.5275 106.26 95.0288 108.761 94.0313 111.199C93.0338 113.632 91.8113 115.582 90.36 117.045C88.9088 118.507 87.3488 119.617 85.68 120.367C84.0113 121.121 81.7613 121.695 78.9338 122.092C77.2875 122.325 74.2013 122.437 69.675 122.437H62.9625L58.8975 141.885ZM64.7063 113.985H67.9425C73.485 113.985 77.1825 113.636 79.0388 112.942C80.895 112.249 82.3575 111.135 83.4225 109.601C84.4875 108.067 85.0238 106.391 85.0238 104.557C85.0238 103.327 84.75 102.319 84.2063 101.527C83.6588 100.74 82.8938 100.166 81.9113 99.8062C80.9213 99.4462 78.7238 99.2662 75.3188 99.2662H67.8038L64.7063 113.985Z" fill="#5D87A1"/>
<path d="M131.119 119.1H111.394L106.627 141.885H96.1237L106.804 90.8812H117.277L113.167 110.572H132.896L137.036 90.8812H147.506L136.86 141.885H126.352L131.119 119.1Z" fill="#5D87A1"/>
<path d="M157.875 141.885H147.364L158.048 90.8812H178.781C182.468 90.8812 185.385 91.3162 187.53 92.1862C189.675 93.0562 191.374 94.4962 192.626 96.4987C193.879 98.505 194.505 100.901 194.505 103.684C194.505 106.26 194.006 108.761 193.009 111.199C192.011 113.632 190.789 115.582 189.338 117.045C187.886 118.507 186.326 119.617 184.658 120.367C182.989 121.121 180.739 121.695 177.911 122.092C176.265 122.325 173.179 122.437 168.653 122.437H161.94L157.875 141.885ZM163.684 113.985H166.92C172.463 113.985 176.16 113.636 178.016 112.942C179.873 112.249 181.335 111.135 182.4 109.601C183.465 108.067 184.001 106.391 184.001 104.557C184.001 103.327 183.728 102.319 183.184 101.527C182.636 100.74 181.871 100.166 180.889 99.8062C179.899 99.4462 177.701 99.2662 174.296 99.2662H166.781L163.684 113.985Z" fill="#5D87A1"/>
</svg>
