<svg width="240" height="240" viewBox="0 0 240 240" fill="none" xmlns="http://www.w3.org/2000/svg">
<path d="M66.6842 0.552077C65.1603 0.589517 63.5191 1.03519 61.6579 2.19791C57.0992 0.80581 52.6781 0.322181 48.7237 3.15624C42.621 2.52932 40.6351 3.82316 39.1316 5.33333C37.7916 5.31137 29.1026 4.24264 25.1184 8.94791C15.1051 8.0101 11.9408 13.6105 15.5263 18.8333C13.4813 21.3396 11.3623 23.8157 16.1447 28.5937C14.4529 31.2549 15.5016 34.1418 19.4868 37.6354C18.4351 41.3763 20.5025 44.0157 24.2105 46.0729C23.517 51.1921 30.1404 54.1687 32.1184 55.2292C32.8779 58.2121 34.4607 61.0267 42.0263 62.5833C43.274 67.0287 47.8209 67.7963 52.2237 68.7292C37.6713 75.4257 25.1918 84.2367 25.2763 105.854L23.1447 108.865C6.45806 116.899 -8.55433 142.72 14.9211 163.708C16.4545 170.278 19.0261 174.996 21.3158 180.219C24.7406 201.262 47.0916 211.116 52.9868 212.281C61.6254 217.491 70.8261 222.434 83.2763 225.896C95.0132 235.479 107.728 239.131 120.513 239.125C120.701 239.125 120.891 239.127 121.079 239.125C133.864 239.131 146.579 235.479 158.316 225.896C170.766 222.434 179.967 217.491 188.605 212.281C194.5 211.116 216.852 201.262 220.276 180.219C222.566 174.996 225.138 170.278 226.671 163.708C250.146 142.72 235.134 116.899 218.447 108.865L216.316 105.854C216.4 84.2367 203.921 75.4257 189.368 68.7292C193.771 67.7963 198.318 67.0287 199.566 62.5833C207.131 61.0267 208.714 58.2121 209.474 55.2292C211.452 54.1687 218.075 51.1921 217.382 46.0729C221.09 44.0157 223.157 41.3763 222.105 37.6354C226.09 34.1418 227.139 31.2549 225.447 28.5937C230.23 23.8157 228.111 21.3396 226.066 18.8333C229.651 13.6105 226.487 8.0101 216.474 8.94791C212.49 4.24264 203.801 5.31137 202.461 5.33333C200.957 3.82316 198.971 2.52932 192.868 3.15624C188.914 0.322181 184.493 0.805811 179.934 2.19791C174.52 -1.18456 170.935 1.52681 166.842 2.55208C160.285 0.856151 158.786 3.17905 155.566 4.12499C148.418 2.92897 146.246 5.53284 142.816 8.28124L138.829 8.21874C128.046 13.2498 122.688 23.4939 120.789 28.7604C118.89 23.4931 113.545 13.2489 102.763 8.21874L98.7763 8.28124C95.3466 5.53284 93.1738 2.92897 86.0263 4.12499C82.806 3.17905 81.3074 0.856152 74.75 2.55208C72.0638 1.87925 69.5935 0.480601 66.6842 0.552077Z" fill="black"/>
<path d="M45.2176 22.6852C73.8272 34.3623 90.4584 43.8082 99.5701 51.8533C94.9039 66.6592 70.5611 67.3349 61.6604 66.9195C63.4829 66.2479 65.0035 65.4436 65.5427 64.2076C63.3092 62.951 55.3899 64.0752 49.8612 61.6162C51.985 61.2679 52.9784 60.9286 53.9719 59.6878C48.7484 58.3689 43.1219 57.2323 39.8128 55.0474C41.5986 55.0648 43.2659 55.3636 45.5982 54.0831C40.9196 52.0871 35.927 50.5053 32.0482 47.454C34.4672 47.4071 37.0753 47.4351 37.8336 46.7308C33.5513 44.6306 29.9383 42.2949 26.9479 39.7401C30.3331 40.0636 31.7627 39.785 32.5811 39.3183C29.3441 36.6935 25.2473 34.4772 23.2939 31.2428C25.8075 31.9286 28.1071 32.1911 29.7645 31.1825C28.6645 29.218 23.9517 28.0593 21.2386 23.4686C23.8846 23.6717 26.691 23.9257 27.2524 23.4686C26.0219 19.5058 23.9145 17.2786 21.8476 14.9713C27.5108 14.9047 36.0908 14.9887 35.7021 14.6097L32.2004 11.7773C37.7321 10.5982 43.3923 11.9666 47.5013 12.9825C49.3463 11.83 47.4687 10.3726 45.2176 8.88454C49.9187 9.38143 54.1666 10.237 58.0064 11.4157C60.058 9.94922 56.6743 8.48278 55.0376 7.01634C62.3005 8.10719 65.3775 9.6399 68.4354 11.1746C70.6541 9.49101 68.5624 8.06017 67.0652 6.59448C72.5413 8.20017 75.3619 10.273 78.3315 12.3196C79.3383 11.244 80.8894 10.4555 79.0166 7.86004C82.9047 9.63428 85.8332 11.7251 87.9993 14.0673C90.4049 12.8547 89.4325 11.1963 89.4456 9.66799C93.4863 12.2702 96.0506 15.0393 99.1895 17.7435C99.8218 17.379 100.375 16.1429 100.864 14.1878C110.504 21.5918 124.126 40.2406 104.366 47.6348C87.558 36.6524 67.4749 28.6723 45.2176 22.6852Z" fill="#75A928"/>
<path d="M197.021 22.6852C168.411 34.3623 151.78 43.8082 142.668 51.8533C147.335 66.6592 171.677 67.3349 180.578 66.9195C178.756 66.2479 177.235 65.4436 176.696 64.2076C178.929 62.951 186.849 64.0752 192.377 61.6162C190.254 61.2679 189.26 60.9286 188.267 59.6878C193.49 58.3689 199.117 57.2323 202.426 55.0474C200.64 55.0648 198.973 55.3636 196.64 54.0831C201.319 52.0871 206.312 50.5053 210.19 47.454C207.771 47.4071 205.163 47.4351 204.405 46.7308C208.687 44.6306 212.3 42.2949 215.291 39.7401C211.905 40.0636 210.476 39.785 209.658 39.3183C212.895 36.6935 216.991 34.4772 218.945 31.2428C216.431 31.9286 214.132 32.1911 212.474 31.1825C213.574 29.218 218.287 28.0593 221 23.4686C218.354 23.6717 215.548 23.9257 214.986 23.4686C216.217 19.5058 218.324 17.2786 220.391 14.9713C214.728 14.9047 206.148 14.9887 206.536 14.6097L210.038 11.7773C204.507 10.5982 198.846 11.9666 194.737 12.9825C192.892 11.83 194.77 10.3726 197.021 8.88454C192.32 9.38143 188.072 10.237 184.232 11.4157C182.181 9.94922 185.564 8.48278 187.201 7.01634C179.938 8.10719 176.861 9.6399 173.803 11.1746C171.585 9.49101 173.676 8.06017 175.173 6.59448C169.697 8.20017 166.877 10.273 163.907 12.3196C162.9 11.244 161.349 10.4555 163.222 7.86004C159.334 9.63428 156.405 11.7251 154.239 14.0673C151.834 12.8547 152.806 11.1963 152.793 9.66799C148.752 12.2702 146.188 15.0393 143.049 17.7435C142.417 17.379 141.863 16.1429 141.374 14.1878C131.734 21.5918 118.113 40.2406 137.873 47.6348C154.681 36.6524 174.764 28.6723 197.021 22.6852Z" fill="#75A928"/>
<path d="M155.767 173.454C155.767 180.089 152.156 186.452 145.73 191.144C139.303 195.835 130.586 198.471 121.497 198.471C112.409 198.471 103.692 195.835 97.2652 191.144C90.8384 186.452 87.2278 180.089 87.2278 173.454C87.2278 166.819 90.8384 160.455 97.2652 155.764C103.692 151.072 112.409 148.436 121.497 148.436C130.586 148.436 139.303 151.072 145.73 155.764C152.156 160.455 155.767 166.819 155.767 173.454Z" fill="#BC1142"/>
<path d="M101.665 101.987C108.484 105.524 112.917 111.44 113.989 118.432C115.061 125.425 112.685 132.922 107.382 139.275C102.08 145.627 94.2855 150.315 85.7144 152.306C77.1433 154.297 68.4973 153.428 61.6784 149.892C54.8595 146.355 50.4264 140.439 49.3542 133.447C48.282 126.454 50.6585 118.957 55.961 112.604C61.2636 106.252 69.0577 101.564 77.6289 99.5734C86.2 97.5823 94.846 98.4507 101.665 101.987Z" fill="#BC1142"/>
<path d="M139.994 100.654C133.175 104.191 128.742 110.106 127.67 117.099C126.598 124.092 128.974 131.589 134.277 137.942C139.579 144.294 147.374 148.981 155.945 150.972C164.516 152.963 173.162 152.095 179.981 148.558C186.8 145.021 191.233 139.106 192.305 132.113C193.377 125.121 191.001 117.623 185.698 111.271C180.395 104.918 172.601 100.231 164.03 98.2401C155.459 96.2491 146.813 97.1174 139.994 100.654Z" fill="#BC1142"/>
<path d="M30.6991 114.029C46.0314 110.777 35.8745 164.241 23.4008 159.855C9.68004 151.117 5.26055 125.529 30.6991 114.029Z" fill="#BC1142"/>
<path d="M207.864 113.363C192.532 110.11 202.689 163.575 215.163 159.188C228.884 150.45 233.303 124.863 207.864 113.363Z" fill="#BC1142"/>
<path d="M155.777 73.5511C182.234 70.0144 204.247 82.4585 203.361 105.17C202.491 113.877 146.031 74.8474 155.777 73.5511Z" fill="#BC1142"/>
<path d="M82.6778 72.8844C56.221 69.3477 34.2079 81.7919 35.0941 104.504C35.9643 113.211 92.424 74.1807 82.6778 72.8844Z" fill="#BC1142"/>
<path d="M120.682 67.5853C104.891 67.2601 89.7363 76.8633 89.7001 82.4334C89.656 89.2015 102.185 96.131 120.789 96.3069C139.789 96.4146 151.912 90.76 151.973 83.7755C152.042 75.8622 134.694 67.463 120.682 67.5853Z" fill="#BC1142"/>
<path d="M121.646 206.372C135.413 205.897 153.886 209.883 153.923 215.171C154.151 220.306 137.169 231.908 120.733 231.683C103.711 232.265 87.0192 220.645 87.238 216.617C86.9833 210.712 107.965 206.101 121.646 206.372Z" fill="#BC1142"/>
<path d="M70.7953 175.035C80.597 184.383 85.065 200.808 76.8852 205.649C69.1466 209.345 50.3537 207.823 36.9962 192.632C27.9878 179.885 29.1488 166.913 35.4738 163.102C44.9325 158.541 59.5468 164.702 70.7953 175.035Z" fill="#BC1142"/>
<path d="M170.535 172.071C159.93 181.904 154.025 199.84 161.761 205.618C169.158 210.106 189.016 209.479 203.684 193.366C214.335 182.545 210.766 164.472 204.682 159.675C195.644 154.141 182.671 161.223 170.535 172.071Z" fill="#BC1142"/>
</svg>
