<svg width="56" height="172" viewBox="0 0 56 172" fill="none" xmlns="http://www.w3.org/2000/svg">
<rect x="1.5" y="1.5" width="52" height="114" rx="26" stroke="black" stroke-width="3"/>
<rect x="25" y="12" width="4" height="14" fill="black"/>
<g clip-path="url(#clip0)">
<path d="M53.9421 130.51L28.4853 155.969L3.02856 130.51C2.55365 130.051 1.79672 130.064 1.33795 130.539C0.890494 131.003 0.890494 131.737 1.33795 132.2L27.6412 158.504C28.108 158.97 28.8648 158.97 29.3318 158.504L55.635 132.2C56.11 131.742 56.1231 130.985 55.6644 130.51C55.2056 130.035 54.4488 130.022 53.9738 130.48C53.9638 130.49 53.9541 130.5 53.9444 130.51L53.9421 130.51Z" fill="#FFC107"/>
<path d="M28.4853 158.855C28.168 158.856 27.8634 158.73 27.6388 158.506L1.33558 132.203C0.876808 131.728 0.890035 130.971 1.36495 130.512C1.82832 130.065 2.56283 130.065 3.02609 130.512L28.4852 155.969L53.942 130.51C54.4007 130.035 55.1575 130.022 55.6326 130.48C56.1075 130.939 56.1206 131.696 55.6619 132.171C55.6523 132.181 55.6425 132.191 55.6326 132.2L29.3294 158.504C29.1057 158.728 28.8021 158.854 28.4853 158.855Z" fill="black"/>
</g>
<defs>
<clipPath id="clip0">
<rect width="55" height="55" fill="white" transform="translate(1 117)"/>
</clipPath>
</defs>
</svg>
