<?xml version="1.0" encoding="UTF-8" standalone="no"?>
<svg
   xmlns:dc="http://purl.org/dc/elements/1.1/"
   xmlns:cc="http://creativecommons.org/ns#"
   xmlns:rdf="http://www.w3.org/1999/02/22-rdf-syntax-ns#"
   xmlns:svg="http://www.w3.org/2000/svg"
   xmlns="http://www.w3.org/2000/svg"
   xmlns:sodipodi="http://sodipodi.sourceforge.net/DTD/sodipodi-0.dtd"
   xmlns:inkscape="http://www.inkscape.org/namespaces/inkscape"
   data-name="Layer 1"
   id="Layer_1"
   viewBox="0 0 100 100"
   version="1.1"
   sodipodi:docname="navbar.svg"
   inkscape:version="0.92.5 (2060ec1f9f, 2020-04-08)">
  <metadata
     id="metadata15">
    <rdf:RDF>
      <cc:Work
         rdf:about="">
        <dc:format>image/svg+xml</dc:format>
        <dc:type
           rdf:resource="http://purl.org/dc/dcmitype/StillImage" />
      </cc:Work>
    </rdf:RDF>
  </metadata>
  <defs
     id="defs13" />
  <sodipodi:namedview
     pagecolor="#ffffff"
     bordercolor="#666666"
     borderopacity="1"
     objecttolerance="10"
     gridtolerance="10"
     guidetolerance="10"
     inkscape:pageopacity="0"
     inkscape:pageshadow="2"
     inkscape:window-width="1366"
     inkscape:window-height="704"
     id="namedview11"
     showgrid="false"
     inkscape:zoom="2.9625"
     inkscape:cx="44.673545"
     inkscape:cy="54.411936"
     inkscape:window-x="0"
     inkscape:window-y="27"
     inkscape:window-maximized="1"
     inkscape:current-layer="Layer_1" />
  <title
     id="title2" />
  <path
     d="M54.47,45A6.05,6.05,0,0,0,63,53.6h0A6.05,6.05,0,0,0,54.47,45ZM61,51.61A3.24,3.24,0,1,1,61,47,3.24,3.24,0,0,1,61,51.61Z"
     id="path6" />
  <path
     d="M73.94,31.61c-7.4-.84-14.08.32-19.73,3.43a32.88,32.88,0,0,0-8.54,6.79H33.05a3,3,0,0,0-2.13.87L22.41,51a3,3,0,0,0,0,4.33l3.72,3.72a3.12,3.12,0,0,0,4.08.2,8.93,8.93,0,0,1,5.44-2.08c-.9,1.79-1.7,3.46-2.34,4.82l-.42.89,12.3,12.3.89-.42c1.4-.66,3.14-1.48,5-2.42a9.46,9.46,0,0,1-2.25,5.69,3,3,0,0,0,.2,4.08l3.54,3.54a3,3,0,0,0,4.31,0l8.51-8.51A3,3,0,0,0,66.24,75V62.4A32.86,32.86,0,0,0,73,53.86c3.11-5.68,4.27-12.32,3.43-19.74A2.83,2.83,0,0,0,73.94,31.61Zm-3.39,20.9a30.47,30.47,0,0,1-6.66,8.21l-.47.42V75a.24.24,0,0,1-.07.17l-8.5,8.5a.24.24,0,0,1-.33,0L51,80.15a.23.23,0,0,1,0-.31A13.06,13.06,0,0,0,53.84,70l-.15-2.16-1.91,1c-2.16,1.14-4.28,2.17-6,3l-9.51-9.51c.8-1.7,1.8-3.76,2.91-5.85l1-1.92L38,54.4c-.52,0-1,0-1.47,0a12.16,12.16,0,0,0-8.13,2.75.21.21,0,0,1-.31,0l-3.72-3.72a.23.23,0,0,1,0-.33l8.51-8.32a.23.23,0,0,1,.16-.07H46.92l.42-.47a30.49,30.49,0,0,1,8.22-6.67c5.15-2.82,11.26-3.87,18.07-3.1a0,0,0,0,1,0,0C74.43,41.27,73.39,47.35,70.56,52.52Z"
     id="path8" />
  <path
     style="fill:#ffffff;stroke-width:0.42372882"
     d="m 53.176547,85.738487 c -1.972882,-1.208347 -4.872398,-4.585801 -4.863752,-5.665462 0.0042,-0.529572 0.554299,-1.769207 1.22235,-2.75475 1.115746,-1.646004 2.05243,-4.600756 1.601448,-5.051739 -0.104082,-0.104082 -1.453992,0.434437 -2.999799,1.19671 l -2.810559,1.385949 -6.101848,-6.090962 -6.101848,-6.090961 1.319574,-2.675956 c 0.725766,-1.471777 1.217768,-2.777762 1.09334,-2.902191 -0.344627,-0.344627 -4.165409,0.902731 -4.961116,1.619638 -0.385801,0.347595 -1.235576,0.765305 -1.88839,0.928245 -1.062072,0.265089 -1.496678,-0.01349 -4.131356,-2.648168 -2.021096,-2.021096 -2.944422,-3.26597 -2.944422,-3.969818 0,-0.758601 1.350554,-2.317717 5.190678,-5.99226 l 5.190678,-4.966863 7.110757,-0.013 c 5.738213,-0.01049 7.15526,-0.128976 7.341317,-0.613834 0.42507,-1.107712 6.141048,-5.319954 9.207767,-6.785425 4.43097,-2.117395 7.85888,-2.895388 12.992702,-2.948805 5.067504,-0.05273 6.56625,0.246249 7.203513,1.436988 0.794932,1.485343 0.548432,10.013033 -0.39545,13.680583 -1.150618,4.470855 -3.819156,9.438123 -6.843542,12.73871 l -2.506894,2.735831 v 6.892186 6.892185 l -4.978814,4.977415 c -2.738347,2.737576 -5.360808,5.086775 -5.82769,5.220436 -0.475059,0.136 -1.408042,-0.09946 -2.118644,-0.534682 z m 6.03232,-6.091084 4.350455,-4.335653 v -6.937981 -6.937984 l 2.886648,-3.090996 c 3.206729,-3.433732 5.587555,-7.706672 6.727255,-12.073603 0.759796,-2.911274 1.046792,-11.08748 0.411428,-11.721179 -0.195814,-0.195301 -2.388611,-0.344683 -4.872882,-0.33196 -4.851097,0.02484 -8.85169,0.952564 -12.854368,2.980874 -2.233012,1.131553 -6.373989,4.376737 -7.901835,6.192479 l -0.997003,1.184871 h -6.999187 -6.999186 l -4.297893,4.077853 c -2.363841,2.242819 -4.35089,4.295347 -4.415666,4.561172 -0.06478,0.265826 0.72885,1.314217 1.763611,2.329758 l 1.881385,1.84644 2.647288,-1.322866 c 2.289708,-1.14418 3.0966,-1.322865 5.973692,-1.322865 h 3.326404 l -1.948524,3.879745 -1.948525,3.879745 4.844188,4.844188 4.844189,4.844189 3.861468,-1.939347 3.861469,-1.939345 0.277828,1.480952 c 0.416098,2.217991 -0.13425,4.939322 -1.586736,7.846 l -1.30027,2.602076 1.834817,1.869542 c 1.00915,1.028246 1.934871,1.869543 2.057156,1.869543 0.122286,0 2.180044,-1.951043 4.572794,-4.335648 z"
     id="path3726"
     inkscape:connector-curvature="0" />
  <path
     style="fill:#ffffff;stroke-width:0.33755276"
     d="m 56.319115,54.630547 c -1.304418,-0.579753 -2.365378,-1.743536 -3.021864,-3.314729 -0.705059,-1.687442 -0.65766,-2.8049 0.19356,-4.563284 2.125118,-4.389909 8.207102,-4.428292 10.432658,-0.06584 2.45436,4.810943 -2.651776,10.145044 -7.604354,7.943853 z m 4.756632,-2.928046 c 1.077228,-1.012003 1.314474,-2.392683 0.65129,-3.790241 -0.970111,-2.044357 -3.437859,-2.539135 -5.213247,-1.045244 -0.855319,0.719703 -1.038557,1.123345 -1.038557,2.287761 0,1.550805 0.687185,2.793639 1.80827,3.270413 1.074158,0.456816 2.9089,0.107169 3.792244,-0.722689 z"
     id="path3734"
     inkscape:connector-curvature="0" />
</svg>
